<?xml version="1.0" standalone="no"?>
<!DOCTYPE svg PUBLIC "-//W3C//DTD SVG 20010904//EN"
 "http://www.w3.org/TR/2001/REC-SVG-20010904/DTD/svg10.dtd">
<svg version="1.0" xmlns="http://www.w3.org/2000/svg"
 width="64.000000pt" height="64.000000pt" viewBox="0 0 64.000000 64.000000"
 preserveAspectRatio="xMidYMid meet">

<g transform="translate(0.000000,64.000000) scale(0.100000,-0.100000)"
fill="#000000" stroke="none">
<path d="M0 320 l0 -320 320 0 320 0 0 320 0 320 -320 0 -320 0 0 -320z m518
-3 c2 -220 1 -248 -14 -254 -9 -3 -20 0 -25 8 -10 16 -12 458 -3 484 4 9 14
15 23 13 14 -3 16 -32 19 -251z m-343 191 c3 -13 4 -102 3 -198 -3 -167 -4
-175 -23 -175 -19 0 -20 8 -23 185 -1 101 0 190 2 197 8 21 35 15 41 -9z m170
-70 c3 -13 5 -66 3 -118 -3 -87 -5 -95 -23 -95 -19 0 -20 8 -23 104 -1 58 0
111 2 118 8 21 35 15 41 -9z m-245 -322 c0 -3 -6 -6 -14 -6 -20 0 -37 25 -30
44 5 14 9 12 25 -8 10 -13 19 -27 19 -30z"/>
</g>
</svg>
